<?xml version="1.0" encoding="UTF-8"?>
<svg id="Layer_1" data-name="Layer 1" xmlns="http://www.w3.org/2000/svg" version="1.1" viewBox="0 0 24 22">
  <defs>
    <style>
      .cls-1 {
        fill: #fff;
        stroke: #fff;
        stroke-miterlimit: 10;
        stroke-width: .5px;
      }
    </style>
  </defs>
  <g>
    <path class="cls-1" d="M15.2,15c-.1,0-.2,0-.3-.2s0-.4.2-.5c0,0,.7-.4,1.1-1.1s.3-.2.5-.2.2.3.2.5c-.5.9-1.4,1.4-1.4,1.4h-.3Z"/>
    <path class="cls-1" d="M18.1,20.8c-.2,0-.3-.2-.3-.3v-1.5c.8-1.9,1.6-4.3,1.6-5.1s-.7-2-1.2-2.8c0-.1-.2-.3-.2-.4,0-.2,0-.4.1-.5.2,0,.4,0,.5.1,0,.1.2.3.2.4.5.9,1.3,2.2,1.3,3.2s-1.1,4.1-1.6,5.3h0v1.3c0,.2-.2.3-.3.3h-.1ZM18.1,19.1h0Z"/>
    <path class="cls-1" d="M13.2,20.5v-.9c0-.1,0-.2-.1-.3-1.3-1.3-1.2-3.8-1.1-4.5v-.2l-.6-2.5c-.1-.6.2-1.1.7-1.4.5-.2.9-.2,1.4,0s.8.6.9,1l.7,2.1s0,.1.1.2l1.1,1.1c.1.1.1.3,0,.5s-.3.1-.5,0l-1.1-1.1c-.1-.1-.2-.3-.3-.5l-.7-2.1c0-.3-.3-.5-.6-.6s-.6-.1-.9,0c-.2,0-.4.3-.3.6l.6,2.5v.4c0,.5-.2,2.8.9,3.9.2.2.3.5.3.8v.9c0,.2-.3.3-.3.3-.3,0-.2-.2-.2-.2Z"/>
    <path class="cls-1" d="M7.3,15.9c-.2,0-.4,0-.6-.2-.3-.2-.5-.6-.4-.9l.4-3.9v-.3l-2.6-2.9c-.2-.3-.3-.6-.2-1,0-.4.4-.6.8-.7l3.8-.8s.2,0,.2-.2l2-3.3c.2-.3.5-.5.9-.5h0c.4,0,.7.2.9.5l2,3.3s.1.1.2.2l3.8.8c.4,0,.6.3.8.7.1.4,0,.7-.2,1l-2.6,2.9v1.2c.1.2,0,.4-.2.4s-.4-.1-.4-.3v-.9c-.1-.3,0-.6.2-.8l2.6-2.9c.1,0,0-.3,0-.3,0,0,0-.2-.3-.2l-3.8-.8c-.3,0-.5-.2-.7-.5l-2-3.3c0-.2-.2-.2-.3-.2h0s-.2,0-.3.2l-2,3.3c-.1.2-.4.4-.7.5l-3.8.8c-.2,0-.2.2-.3.2s0,.2,0,.3l2.6,2.9c.2.2.3.5.3.8l-.4,3.9c0,.2,0,.3,0,.3h.4l2.9-1.2c.2,0,.4,0,.4.2s0,.4-.2.4l-2.9,1.2h-.4,0Z"/>
  </g>
  <path class="cls-1" d="M11.2,8.3v-.2c0-.4,0-.8.4-1.2.3-.4.5-.6.5-.9s-.2-.6-.6-.6-.5,0-.7.2l-.2-.4c.2-.2.6-.3,1-.3.8,0,1.1.5,1.1,1s-.3.8-.6,1.2c-.3.3-.4.6-.4,1v.2h-.5ZM11.1,9.2c0-.2.2-.4.4-.4s.4.2.4.4-.2.4-.4.4-.4-.2-.4-.4Z"/>
</svg>