<?xml version="1.0" encoding="UTF-8"?>
<svg id="Layer_1" data-name="Layer 1" xmlns="http://www.w3.org/2000/svg" version="1.1" viewBox="0 0 24 22">
  <defs>
    <style>
      .cls-1 {
        stroke-width: .2px;
      }

      .cls-1, .cls-2 {
        fill: #fff;
        stroke: #fff;
        stroke-miterlimit: 10;
      }

      .cls-2 {
        stroke-width: .5px;
      }
    </style>
  </defs>
  <g>
    <g>
      <path class="cls-2" d="M14.3,17.2h-3.1c-.3,0-.5,0-.8-.1l-1.9-.7c-.2,0-.2-.3-.2-.4s.3-.2.4-.2l1.9.7c.2,0,.3.1.5.1h3.1c.3,0,.5-.2.5-.5,0-.6-.4-1.1-1-1.1l-1.6-.2c-.4,0-.9-.3-1.2-.6-.5-.5-1.5-1.3-2.9-1.3s-3,1-3.5,1.5-.4.3-.7.4l-1,.3c-.2,0-.4,0-.4-.2s0-.4.2-.4l1-.3c.2,0,.3-.1.5-.3.6-.5,2.1-1.6,3.9-1.6s2.8.9,3.3,1.4.5.3.8.4l1.6.2c.9.1,1.6.9,1.6,1.8s-.5,1.2-1.2,1.2h.2Z"/>
      <path class="cls-2" d="M11.9,20.7c-1.4,0-4.2-.7-5.8-1.2h-.8l-2.2.7c-.2,0-.4,0-.4-.2s0-.4.2-.4l2.2-.7c.4-.1.8-.1,1.2,0,2.6.7,4.7,1.1,5.6,1.1s.7,0,3.9-1.7c1.9-1,3.9-2.1,4.8-2.6.2,0,.3-.3.3-.5v-.2c-.3-.7-1-1-1.8-.8l-2.4.8c-.2,0-.4,0-.4-.2s0-.4.2-.4l2.4-.8c1-.4,2.2.1,2.6,1.1v.4c0,.4-.2.8-.6,1-1,.6-3,1.7-4.9,2.6-3.5,1.8-4,1.8-4.2,1.8h0v.2Z"/>
    </g>
    <path class="cls-2" d="M16.4,10.4h-.3l-2.2-1h0l-2.2,1c-.2.1-.5,0-.7,0s-.3-.4-.3-.7l.2-2.4h0l-1.6-1.8c-.2-.2-.2-.5-.2-.7,0-.3.3-.4.6-.5l2.4-.5h0l1.2-2.1c.1-.2.4-.4.7-.4s.5.1.7.4l1.2,2.1h0l2.4.5c.3,0,.5.2.6.5.1.3,0,.5-.2.7l-1.6,1.8h0l.2,2.4c0,.3,0,.5-.3.7-.1,0-.3.1-.4.1h-.2ZM13.8,1.6h0l-1.2,2.1c-.1.2-.3.3-.5.4l-2.4.5h0c0,0,1.6,1.9,1.6,1.9.1.2.2.4.2.6l-.2,2.4h.1l2.2-1h.6l2.2,1h.1l-.2-2.4c0-.2,0-.4.2-.6l1.6-1.8h0c0-.2,0,0,0,0l-2.4-.5c-.2,0-.4-.2-.5-.4l-1.2-2.1h-.2Z"/>
    <path class="cls-2" d="M13.8,12.2c-.2,0-.3-.1-.3-.3v-.9c0-.2.1-.3.3-.3s.3.1.3.3v.9c0,.2-.1.3-.3.3Z"/>
    <path class="cls-2" d="M17.2,2.4h-.2c-.1-.1-.1-.3,0-.5l.6-.6c.1,0,.3,0,.5,0,.1.1.1.3,0,.5l-.6.6h-.3Z"/>
    <path class="cls-2" d="M8.2,8.5c-.1,0-.3,0-.3-.2s0-.4.2-.4l.8-.3c.2,0,.4,0,.4.2s0,.4-.2.4l-.8.3h-.1,0Z"/>
    <path class="cls-2" d="M19.5,8.5h-.1l-.8-.3c-.2,0-.3-.2-.2-.4s.2-.3.4-.2l.8.3c.2,0,.3.2.2.4,0,0-.2.2-.3.2h0Z"/>
    <path class="cls-2" d="M10.5,2.4h-.2l-.6-.6c-.1-.1-.1-.3,0-.5.1,0,.3,0,.5,0l.6.6c.1.1.1.3,0,.5h-.3Z"/>
  </g>
  <path class="cls-1" d="M13.7,6.7h0v-.2c0-.3,0-.5.3-.9.2-.2.4-.5.4-.7s-.2-.5-.5-.5-.4,0-.5.2l-.2-.3c.2-.2.5-.2.7-.2.6,0,.9.4.9.8s-.2.6-.5.9c-.2.2-.3.5-.3.8v.2h-.3ZM13.6,7.3c0-.2.2-.3.3-.3s.3.2.3.3-.2.3-.3.3-.3-.2-.3-.3Z"/>
</svg>