<svg width="24" height="22" viewBox="0 0 24 22" fill="none" xmlns="http://www.w3.org/2000/svg">
<path fill-rule="evenodd" clip-rule="evenodd" d="M4.05753 4.28427C5.35753 4.59727 18.1495 8.04827 23.2575 9.41227C23.7045 9.54327 23.9605 9.89627 23.9955 10.2893C24.0045 10.3893 23.9955 10.4873 23.9765 10.5873C23.1135 14.1663 22.0705 17.7023 21.1165 21.2603C20.9835 21.7103 20.6265 21.9623 20.2385 21.9963C20.1375 22.0063 20.0405 21.9983 19.9405 21.9793C13.5015 20.4283 7.14053 18.5613 0.741531 16.8513C0.285531 16.7173 0.0375307 16.3593 0.00353074 15.9743C-0.00546926 15.8743 0.00353074 15.7753 0.0215307 15.6773C0.885531 12.0963 1.92853 8.56027 2.88153 5.00327C3.03853 4.47827 3.51253 4.18327 4.05753 4.28427ZM2.22553 15.1773L19.4415 19.7783L21.7725 11.0863C16.9875 9.80727 4.55753 6.48727 4.55753 6.48727C3.77953 9.38327 3.00253 12.2813 2.22553 15.1773ZM18.3735 18.6563L18.6315 17.6933L15.9145 16.9763L15.6555 17.9413L18.3735 18.6563ZM13.3545 17.3313L14.3205 17.5933L14.7645 15.9353L13.7995 15.6733L13.3545 17.3313ZM19.0625 16.0033L19.3215 15.0383L16.6035 14.3213L16.3435 15.2863L19.0625 16.0033ZM14.0585 14.7063L15.0245 14.9683L15.5275 13.0933L14.5605 12.8323L14.0585 14.7063ZM19.5075 14.2723L19.7665 13.3063L17.0475 12.5903L16.7895 13.5553L19.5075 14.2723ZM19.9725 12.5043L20.2315 11.5393L17.5135 10.8223L17.2545 11.7883L19.9725 12.5043ZM14.8195 11.8663L15.7865 12.1273L16.2305 10.4693L15.2645 10.2083L14.8195 11.8663ZM7.17853 3.37127C11.4375 2.24627 15.7115 1.17127 19.9665 0.0342683C20.1095 -0.000731688 20.1745 -0.000731728 20.2655 0.000268273C20.6925 0.0282683 21.0305 0.270268 21.1775 0.691268C21.8555 2.98827 22.4575 5.30527 23.0575 7.62227L20.8015 7.01827L19.5185 2.22427L11.2005 4.44727L7.17853 3.37127Z" fill="white"/>
</svg>
