<svg width="104" height="104" viewBox="0 0 104 104" fill="none" xmlns="http://www.w3.org/2000/svg">
<mask id="mask0_87_25" style="mask-type:alpha" maskUnits="userSpaceOnUse" x="0" y="0" width="104" height="104">
<rect width="104" height="104" fill="white"/>
</mask>
<g mask="url(#mask0_87_25)">
<path d="M36.3328 86.6667V82.3333H49.8333V66.0671C46.0164 65.3831 42.6761 63.787 39.8125 61.2787C36.9489 58.7705 34.9779 55.6609 33.8996 51.9502C29.3164 51.4114 25.4096 49.5322 22.1791 46.3125C18.9486 43.0928 17.3333 39.2109 17.3333 34.6667V30.3333C17.3333 29.172 17.7652 28.1594 18.629 27.2957C19.4928 26.4319 20.5053 26 21.6666 26H33.1662V17.3333H70.8337V26H82.3333C83.4947 26 84.5072 26.4319 85.371 27.2957C86.2348 28.1594 86.6666 29.172 86.6666 30.3333V34.6667C86.6666 39.2109 85.0514 43.0928 81.8209 46.3125C78.5904 49.5322 74.6835 51.4114 70.1003 51.9502C69.022 55.6609 67.0511 58.7705 64.1875 61.2787C61.3239 63.787 57.9836 65.3831 54.1666 66.0671V82.3333H67.6671V86.6667H36.3328ZM33.1662 47.3005V30.3333H21.6666V34.6667C21.6666 37.9665 22.7666 40.8012 24.9665 43.1708C27.1664 45.5404 29.8996 46.917 33.1662 47.3005ZM52 61.8334C55.9996 61.8334 59.3887 60.4446 62.1671 57.6669C64.9447 54.8892 66.3336 51.5002 66.3336 47.4998V21.6667H37.6664V47.4998C37.6664 51.5002 39.0552 54.8892 41.8329 57.6669C44.6113 60.4446 48.0003 61.8334 52 61.8334ZM70.8337 47.3005C74.1003 46.917 76.8336 45.5404 79.0335 43.1708C81.2334 40.8012 82.3333 37.9665 82.3333 34.6667V30.3333H70.8337V47.3005Z" fill="white"/>
</g>
</svg>
